<svg width="222" height="374" viewBox="0 0 222 374" fill="none" xmlns="http://www.w3.org/2000/svg">
<path fill-rule="evenodd" clip-rule="evenodd" d="M8.48278 186.365C7.74921 184.417 8.06505 182.234 9.33861 180.604C16.5826 171.349 15.686 150.195 15.523 146.946C15.4678 145.937 14.4756 142.884 13.1973 138.95C9.99438 129.094 4.9947 113.709 8.43182 111.094C13.251 107.425 15.197 87.5414 15.197 87.5414C15.197 87.5414 20.2097 46.7391 27.2398 34.891C27.8511 33.8456 28.7681 32.9847 29.899 32.5337C35.9815 30.1251 38.7833 17.9183 39.8939 11.082C40.4848 7.43331 43.2663 4.52252 46.8832 3.89731C51.4476 3.09787 59.0075 3.00563 71.2031 5.55769C96.6132 10.877 123.745 35.0448 128.778 40.3641C131.36 43.0981 136.692 50.6028 142.325 58.5308C147.652 66.0277 153.248 73.9031 157.041 78.481C161.535 83.9042 165.653 97.4478 169.109 108.812C171.655 117.186 173.842 124.376 175.554 126.263C179.588 130.711 193.547 158.036 189.909 175.224C186.272 192.412 188.962 203.143 200.577 208.81C206.422 211.668 210.601 210.522 213.144 209.825C215.653 209.137 216.568 208.886 215.92 213.351C215.082 221.906 212.365 225.121 209.025 229.075C206.847 231.652 204.404 234.544 202.044 239.435C197.306 249.254 197.245 257.207 197.428 260.087C197.479 260.897 197.377 261.696 197.102 262.465C195.982 265.632 193.088 273.944 192.945 275.635C192.772 277.726 182.064 308.341 175.166 312.533C168.778 316.407 157.041 327.128 155.34 328.696C155.197 328.819 155.075 328.942 154.953 329.085C152.976 331.309 134.922 351.398 120.189 363.912C105.533 376.365 98.2162 373.122 94.94 371.67C94.727 371.576 94.5311 371.489 94.3513 371.414C91.4069 370.195 83.4293 362.344 83.4293 362.344L68.3402 345.945C68.3402 345.945 43.195 316.202 36.6947 278.956C31.142 247.163 13.5159 199.607 8.48278 186.365ZM126.943 188.26C126.943 196.739 120.109 203.613 111.68 203.613C104.56 203.613 98.5784 198.708 96.8926 192.074L54.6072 193.627C53.3786 200.867 47.1106 206.379 39.5632 206.379C31.134 206.379 24.3008 199.505 24.3008 191.025C24.3008 182.546 31.134 175.672 39.5632 175.672C47.3375 175.672 53.7541 181.519 54.7043 189.08L96.4341 187.547C96.8041 179.398 103.489 172.906 111.68 172.906C120.109 172.906 126.943 179.78 126.943 188.26Z" fill="#FF0000"/>
</svg>
